<?xml version="1.0" encoding="utf-8" ?>
<svg baseProfile="tiny" height="200px" version="1.2" width="600px" xmlns="http://www.w3.org/2000/svg" xmlns:ev="http://www.w3.org/2001/xml-events" xmlns:xlink="http://www.w3.org/1999/xlink"><defs /><text fill="black" font-size="14px" text-anchor="start" x="20" y="200">¿Cuál es el trabajo realizado por un gas en una expansión isobárica si la presión </text><text fill="black" font-size="14px" text-anchor="start" x="20" y="218"> es de 8.31 atm y el cambio de volumen es de 15.24 litros?</text><circle cx="74.6019" cy="82.7149" fill="blue" r="2" /><circle cx="49.5555" cy="98.9669" fill="blue" r="2" /><circle cx="47.6824" cy="65.6256" fill="blue" r="2" /><circle cx="19.9429" cy="84.7083" fill="blue" r="2" /><circle cx="136.259" cy="37.9972" fill="blue" r="2" /><circle cx="151.1682" cy="27.1961" fill="blue" r="2" /><circle cx="70.9113" cy="50.6307" fill="blue" r="2" /><circle cx="137.7432" cy="96.1754" fill="blue" r="2" /><circle cx="12.4622" cy="51.0416" fill="blue" r="2" /><circle cx="1.6951" cy="90.3211" fill="blue" r="2" /><circle cx="44.5602" cy="13.3148" fill="blue" r="2" /><circle cx="140.8079" cy="11.9644" fill="blue" r="2" /><circle cx="127.1631" cy="65.546" fill="blue" r="2" /><circle cx="146.3181" cy="20.1707" fill="blue" r="2" /><circle cx="152.1982" cy="7.072" fill="blue" r="2" /><circle cx="182.3985" cy="65.8991" fill="blue" r="2" /><circle cx="1.8714" cy="78.259" fill="blue" r="2" /><circle cx="20.1651" cy="86.0325" fill="blue" r="2" /><circle cx="61.1555" cy="11.1486" fill="blue" r="2" /><circle cx="70.0608" cy="25.2574" fill="blue" r="2" /><circle cx="150.387" cy="23.6378" fill="blue" r="2" /><circle cx="169.9429" cy="97.8729" fill="blue" r="2" /><circle cx="174.3017" cy="34.3313" fill="blue" r="2" /><circle cx="125.3567" cy="94.6485" fill="blue" r="2" /><circle cx="121.1987" cy="44.3449" fill="blue" r="2" /><circle cx="65.7757" cy="51.6089" fill="blue" r="2" /><circle cx="86.2775" cy="88.567" fill="blue" r="2" /><circle cx="20.6613" cy="33.5728" fill="blue" r="2" /><circle cx="95.7778" cy="53.8142" fill="blue" r="2" /><circle cx="5.3851" cy="53.1839" fill="blue" r="2" /><circle cx="89.6711" cy="23.6731" fill="blue" r="2" /><circle cx="152.4099" cy="13.2831" fill="blue" r="2" /><circle cx="169.348" cy="72.1681" fill="blue" r="2" /><circle cx="115.7894" cy="23.584" fill="blue" r="2" /><circle cx="110.2354" cy="66.7772" fill="blue" r="2" /><circle cx="112.5429" cy="35.1429" fill="blue" r="2" /><circle cx="7.9771" cy="7.3078" fill="blue" r="2" /><circle cx="70.8321" cy="47.3497" fill="blue" r="2" /><circle cx="23.992" cy="3.8887" fill="blue" r="2" /><circle cx="173.4654" cy="6.1471" fill="blue" r="2" /><circle cx="36.6624" cy="15.8774" fill="blue" r="2" /><circle cx="42.337" cy="56.7244" fill="blue" r="2" /><circle cx="189.767" cy="43.4275" fill="blue" r="2" /><circle cx="4.8709" cy="96.2086" fill="blue" r="2" /><circle cx="29.4536" cy="82.2199" fill="blue" r="2" /><circle cx="55.9603" cy="26.7598" fill="blue" r="2" /><circle cx="155.4162" cy="85.7812" fill="blue" r="2" /><circle cx="122.4284" cy="46.1369" fill="blue" r="2" /><circle cx="113.5841" cy="48.3372" fill="blue" r="2" /><circle cx="11.0222" cy="5.6031" fill="blue" r="2" /><circle cx="179.9541" cy="47.7343" fill="blue" r="2" /><circle cx="32.6587" cy="79.5786" fill="blue" r="2" /><circle cx="177.0661" cy="6.5875" fill="blue" r="2" /><circle cx="80.6496" cy="41.7003" fill="blue" r="2" /><circle cx="171.4875" cy="38.6213" fill="blue" r="2" /><circle cx="118.3469" cy="71.0895" fill="blue" r="2" /><circle cx="73.6566" cy="42.0786" fill="blue" r="2" /><circle cx="159.6787" cy="28.4474" fill="blue" r="2" /><circle cx="103.6467" cy="0.158" fill="blue" r="2" /><circle cx="3.0456" cy="30.1698" fill="blue" r="2" /><circle cx="78.0058" cy="59.9163" fill="blue" r="2" /><circle cx="65.2506" cy="57.3135" fill="blue" r="2" /><circle cx="89.2652" cy="23.2537" fill="blue" r="2" /><circle cx="66.8147" cy="60.0832" fill="blue" r="2" /><circle cx="76.7384" cy="42.0319" fill="blue" r="2" /><circle cx="74.8656" cy="30.7914" fill="blue" r="2" /><circle cx="100.9254" cy="61.9539" fill="blue" r="2" /><circle cx="5.7992" cy="65.5797" fill="blue" r="2" /><circle cx="5.7328" cy="86.1472" fill="blue" r="2" /><circle cx="7.4008" cy="95.2649" fill="blue" r="2" /><circle cx="16.2106" cy="55.3785" fill="blue" r="2" /><circle cx="121.5503" cy="51.342" fill="blue" r="2" /><circle cx="1.6521" cy="17.5785" fill="blue" r="2" /><circle cx="161.9956" cy="64.8011" fill="blue" r="2" /><circle cx="51.1479" cy="5.1507" fill="blue" r="2" /><circle cx="142.6898" cy="79.8322" fill="blue" r="2" /><circle cx="16.7025" cy="34.7329" fill="blue" r="2" /><circle cx="182.1062" cy="55.7845" fill="blue" r="2" /><circle cx="130.5734" cy="27.846" fill="blue" r="2" /><circle cx="186.9994" cy="67.5422" fill="blue" r="2" /><circle cx="180.7798" cy="91.3283" fill="blue" r="2" /><circle cx="108.3415" cy="90.3356" fill="blue" r="2" /><circle cx="170.7292" cy="65.5469" fill="blue" r="2" /><circle cx="81.81" cy="24.5674" fill="blue" r="2" /><circle cx="73.5775" cy="14.4501" fill="blue" r="2" /><circle cx="17.3757" cy="79.729" fill="blue" r="2" /><circle cx="144.4094" cy="75.883" fill="blue" r="2" /><circle cx="23.1665" cy="68.3479" fill="blue" r="2" /><circle cx="115.7467" cy="39.8339" fill="blue" r="2" /><circle cx="191.2319" cy="5.0434" fill="blue" r="2" /><circle cx="21.0859" cy="44.2334" fill="blue" r="2" /><circle cx="49.0291" cy="19.2427" fill="blue" r="2" /><circle cx="112.9479" cy="26.2304" fill="blue" r="2" /><circle cx="162.3801" cy="22.8331" fill="blue" r="2" /><circle cx="84.4034" cy="19.4471" fill="blue" r="2" /><circle cx="14.2143" cy="63.7762" fill="blue" r="2" /><circle cx="150.9299" cy="95.5147" fill="blue" r="2" /><circle cx="103.0954" cy="61.5737" fill="blue" r="2" /><circle cx="97.1663" cy="3.0765" fill="blue" r="2" /><circle cx="39.4782" cy="77.029" fill="blue" r="2" /><circle cx="23.1314" cy="18.2614" fill="blue" r="2" /><circle cx="46.4755" cy="19.8712" fill="blue" r="2" /><circle cx="199.9582" cy="12.8337" fill="blue" r="2" /><circle cx="194.4614" cy="31.8968" fill="blue" r="2" /><circle cx="162.2235" cy="60.8684" fill="blue" r="2" /><circle cx="189.1158" cy="23.5252" fill="blue" r="2" /><circle cx="119.5351" cy="99.5232" fill="blue" r="2" /><circle cx="194.4482" cy="63.4497" fill="blue" r="2" /><circle cx="128.7177" cy="33.2485" fill="blue" r="2" /><circle cx="14.5124" cy="71.646" fill="blue" r="2" /><circle cx="175.9418" cy="37.5845" fill="blue" r="2" /><circle cx="171.1319" cy="39.0812" fill="blue" r="2" /><circle cx="10.9323" cy="48.709" fill="blue" r="2" /><circle cx="117.0114" cy="54.3364" fill="blue" r="2" /><circle cx="177.4067" cy="33.7343" fill="blue" r="2" /><circle cx="37.2848" cy="46.6111" fill="blue" r="2" /><circle cx="40.7434" cy="3.0047" fill="blue" r="2" /><circle cx="96.3053" cy="34.84" fill="blue" r="2" /><circle cx="53.3186" cy="21.863" fill="blue" r="2" /><circle cx="109.5746" cy="40.6283" fill="blue" r="2" /><circle cx="43.7311" cy="39.5211" fill="blue" r="2" /><circle cx="171.9249" cy="90.814" fill="blue" r="2" /><circle cx="124.4836" cy="8.3949" fill="blue" r="2" /><circle cx="105.0055" cy="73.604" fill="blue" r="2" /><circle cx="182.2007" cy="2.865" fill="blue" r="2" /><circle cx="25.3283" cy="15.135" fill="blue" r="2" /><circle cx="94.9544" cy="32.2244" fill="blue" r="2" /><circle cx="148.8633" cy="7.71" fill="blue" r="2" /><circle cx="171.4515" cy="25.9434" fill="blue" r="2" /><circle cx="0.6776" cy="79.7274" fill="blue" r="2" /><circle cx="115.8847" cy="12.0828" fill="blue" r="2" /><circle cx="191.736" cy="34.3944" fill="blue" r="2" /><circle cx="100.9482" cy="99.886" fill="blue" r="2" /><circle cx="51.1037" cy="93.7626" fill="blue" r="2" /><circle cx="3.7899" cy="52.927" fill="blue" r="2" /><circle cx="113.2918" cy="73.1469" fill="blue" r="2" /><circle cx="170.0625" cy="84.6124" fill="blue" r="2" /><circle cx="180.8151" cy="66.293" fill="blue" r="2" /><circle cx="112.0333" cy="66.5979" fill="blue" r="2" /><circle cx="167.845" cy="18.0079" fill="blue" r="2" /><circle cx="112.7006" cy="98.1142" fill="blue" r="2" /><circle cx="134.5455" cy="79.7266" fill="blue" r="2" /><circle cx="119.5297" cy="65.6803" fill="blue" r="2" /><circle cx="34.0868" cy="99.1335" fill="blue" r="2" /><circle cx="78.055" cy="6.1786" fill="blue" r="2" /><circle cx="100.2521" cy="74.0924" fill="blue" r="2" /><circle cx="80.1203" cy="83.1518" fill="blue" r="2" /><circle cx="190.4914" cy="56.1606" fill="blue" r="2" /><circle cx="72.0704" cy="43.2236" fill="blue" r="2" /><circle cx="18.6146" cy="27.6233" fill="blue" r="2" /><circle cx="64.814" cy="74.2616" fill="blue" r="2" /><circle cx="166.8752" cy="66.0993" fill="blue" r="2" /><circle cx="156.5309" cy="73.0158" fill="blue" r="2" /><circle cx="151.3711" cy="49.5262" fill="blue" r="2" /><circle cx="128.199" cy="39.7936" fill="blue" r="2" /><circle cx="34.9935" cy="29.6865" fill="blue" r="2" /><circle cx="26.4068" cy="67.2246" fill="blue" r="2" /><circle cx="76.1312" cy="1.7252" fill="blue" r="2" /><circle cx="176.5422" cy="51.3086" fill="blue" r="2" /><circle cx="36.3629" cy="75.2352" fill="blue" r="2" /><circle cx="73.0125" cy="37.3316" fill="blue" r="2" /><circle cx="129.6956" cy="23.7157" fill="blue" r="2" /><circle cx="111.7047" cy="49.2507" fill="blue" r="2" /><circle cx="103.7937" cy="55.0661" fill="blue" r="2" /><circle cx="43.4675" cy="24.5132" fill="blue" r="2" /><circle cx="41.2418" cy="99.1772" fill="blue" r="2" /><circle cx="78.0617" cy="40.9695" fill="blue" r="2" /><circle cx="40.3999" cy="83.8103" fill="blue" r="2" /><circle cx="191.4331" cy="21.3141" fill="blue" r="2" /><circle cx="175.2913" cy="44.4701" fill="blue" r="2" /><circle cx="64.7647" cy="40.9827" fill="blue" r="2" /><circle cx="111.6118" cy="88.8579" fill="blue" r="2" /><circle cx="0.4261" cy="25.2432" fill="blue" r="2" /><circle cx="4.9726" cy="46.781" fill="blue" r="2" /><circle cx="108.5291" cy="29.2711" fill="blue" r="2" /><circle cx="115.354" cy="23.741" fill="blue" r="2" /><circle cx="89.1996" cy="39.2592" fill="blue" r="2" /><circle cx="16.1386" cy="43.5718" fill="blue" r="2" /><circle cx="44.3846" cy="9.9792" fill="blue" r="2" /><circle cx="61.6589" cy="19.6877" fill="blue" r="2" /><circle cx="1.264" cy="26.4921" fill="blue" r="2" /><circle cx="42.3823" cy="53.3969" fill="blue" r="2" /><circle cx="47.5674" cy="53.0746" fill="blue" r="2" /><circle cx="48.4877" cy="26.3666" fill="blue" r="2" /><circle cx="185.5583" cy="92.3693" fill="blue" r="2" /><circle cx="68.2987" cy="47.2293" fill="blue" r="2" /><circle cx="59.1024" cy="36.4729" fill="blue" r="2" /><circle cx="22.7856" cy="7.8552" fill="blue" r="2" /><circle cx="135.3939" cy="61.2873" fill="blue" r="2" /><circle cx="87.2731" cy="48.1946" fill="blue" r="2" /><circle cx="33.6128" cy="56.7076" fill="blue" r="2" /><circle cx="5.3225" cy="89.4084" fill="blue" r="2" /><circle cx="35.3759" cy="80.691" fill="blue" r="2" /><circle cx="45.2236" cy="69.1142" fill="blue" r="2" /><circle cx="97.2803" cy="25.9246" fill="blue" r="2" /><circle cx="44.9081" cy="74.2703" fill="blue" r="2" /><circle cx="103.5731" cy="5.9489" fill="blue" r="2" /><circle cx="161.516" cy="21.3154" fill="blue" r="2" /><circle cx="188.8022" cy="34.5701" fill="blue" r="2" /><circle cx="33.3955" cy="96.1628" fill="blue" r="2" /><circle cx="95.7092" cy="25.7162" fill="blue" r="2" /><circle cx="89.6842" cy="98.8055" fill="blue" r="2" /><circle cx="4.6875" cy="3.264" fill="blue" r="2" /><circle cx="137.4872" cy="39.9796" fill="blue" r="2" /><circle cx="139.1403" cy="9.9065" fill="blue" r="2" /><circle cx="108.0009" cy="5.8562" fill="blue" r="2" /><circle cx="10.8276" cy="45.6252" fill="blue" r="2" /><circle cx="169.4941" cy="30.4632" fill="blue" r="2" /><circle cx="102.4794" cy="71.8994" fill="blue" r="2" /><circle cx="43.5999" cy="6.1487" fill="blue" r="2" /><circle cx="17.4166" cy="65.9624" fill="blue" r="2" /><circle cx="131.3564" cy="24.7528" fill="blue" r="2" /><circle cx="2.0587" cy="46.8352" fill="blue" r="2" /><circle cx="195.9723" cy="35.8143" fill="blue" r="2" /><circle cx="25.1447" cy="62.2108" fill="blue" r="2" /><circle cx="100.1081" cy="33.518" fill="blue" r="2" /><circle cx="130.7715" cy="78.1299" fill="blue" r="2" /><circle cx="194.1326" cy="67.9811" fill="blue" r="2" /><circle cx="150.8287" cy="34.5583" fill="blue" r="2" /><circle cx="59.6995" cy="34.5492" fill="blue" r="2" /><circle cx="68.2742" cy="44.6349" fill="blue" r="2" /><circle cx="51.9436" cy="8.1537" fill="blue" r="2" /><circle cx="122.401" cy="54.6817" fill="blue" r="2" /><circle cx="73.3003" cy="39.4257" fill="blue" r="2" /><circle cx="37.8303" cy="81.9419" fill="blue" r="2" /><circle cx="74.5231" cy="35.5915" fill="blue" r="2" /><circle cx="188.3377" cy="1.1504" fill="blue" r="2" /><circle cx="85.636" cy="26.3585" fill="blue" r="2" /><circle cx="26.0431" cy="67.4497" fill="blue" r="2" /><circle cx="6.0154" cy="85.2574" fill="blue" r="2" /><circle cx="139.9256" cy="22.7145" fill="blue" r="2" /><circle cx="55.9779" cy="32.8374" fill="blue" r="2" /><circle cx="193.4191" cy="83.8005" fill="blue" r="2" /><circle cx="110.0962" cy="56.5875" fill="blue" r="2" /><circle cx="162.8455" cy="56.2171" fill="blue" r="2" /><circle cx="164.942" cy="67.9527" fill="blue" r="2" /><circle cx="113.5615" cy="81.7682" fill="blue" r="2" /><circle cx="136.2293" cy="6.1808" fill="blue" r="2" /><circle cx="158.2916" cy="55.8017" fill="blue" r="2" /><circle cx="42.67" cy="49.0324" fill="blue" r="2" /><circle cx="183.1242" cy="52.414" fill="blue" r="2" /><circle cx="193.3342" cy="8.5047" fill="blue" r="2" /><circle cx="140.8708" cy="63.6201" fill="blue" r="2" /><circle cx="42.3651" cy="5.5222" fill="blue" r="2" /><circle cx="199.7856" cy="17.9686" fill="blue" r="2" /><circle cx="185.0595" cy="10.2623" fill="blue" r="2" /><circle cx="25.0199" cy="40.8991" fill="blue" r="2" /><circle cx="187.5912" cy="12.3216" fill="blue" r="2" /><circle cx="5.8283" cy="82.8271" fill="blue" r="2" /><circle cx="49.4754" cy="13.8481" fill="blue" r="2" /><circle cx="94.5988" cy="43.9977" fill="blue" r="2" /><circle cx="174.5127" cy="2.5849" fill="blue" r="2" /><circle cx="25.0586" cy="6.5687" fill="blue" r="2" /><circle cx="146.2464" cy="24.9173" fill="blue" r="2" /><circle cx="117.9897" cy="99.304" fill="blue" r="2" /><circle cx="64.5801" cy="50.9209" fill="blue" r="2" /><circle cx="37.0555" cy="30.8967" fill="blue" r="2" /><circle cx="99.9735" cy="18.2733" fill="blue" r="2" /><circle cx="108.6421" cy="11.4524" fill="blue" r="2" /><circle cx="44.6148" cy="44.8525" fill="blue" r="2" /><circle cx="90.5218" cy="81.4226" fill="blue" r="2" /><circle cx="149.1339" cy="33.9371" fill="blue" r="2" /><circle cx="138.9144" cy="95.1496" fill="blue" r="2" /><circle cx="185.5879" cy="9.596" fill="blue" r="2" /><circle cx="130.0171" cy="79.4662" fill="blue" r="2" /><circle cx="37.7861" cy="9.4306" fill="blue" r="2" /><circle cx="57.7409" cy="31.9028" fill="blue" r="2" /><circle cx="119.3982" cy="78.0664" fill="blue" r="2" /><circle cx="16.0902" cy="6.5035" fill="blue" r="2" /><circle cx="68.5574" cy="9.7263" fill="blue" r="2" /><circle cx="170.4862" cy="32.3072" fill="blue" r="2" /><circle cx="18.8593" cy="16.4909" fill="blue" r="2" /><circle cx="182.2552" cy="90.9835" fill="blue" r="2" /><circle cx="91.9777" cy="32.9493" fill="blue" r="2" /><circle cx="146.4392" cy="27.7782" fill="blue" r="2" /><circle cx="48.8614" cy="83.0667" fill="blue" r="2" /><circle cx="75.7863" cy="81.3092" fill="blue" r="2" /><circle cx="123.7047" cy="20.0993" fill="blue" r="2" /><circle cx="177.8176" cy="0.7708" fill="blue" r="2" /><circle cx="168.7673" cy="19.4819" fill="blue" r="2" /><circle cx="139.7756" cy="54.0233" fill="blue" r="2" /><circle cx="5.4694" cy="88.2033" fill="blue" r="2" /><circle cx="70.5061" cy="65.3822" fill="blue" r="2" /><circle cx="5.6669" cy="96.7685" fill="blue" r="2" /><circle cx="145.1842" cy="13.4515" fill="blue" r="2" /><circle cx="103.9488" cy="22.8576" fill="blue" r="2" /><circle cx="97.4996" cy="0.6611" fill="blue" r="2" /><circle cx="177.6397" cy="80.0106" fill="blue" r="2" /><circle cx="55.9749" cy="84.1806" fill="blue" r="2" /><circle cx="77.7126" cy="39.9317" fill="blue" r="2" /><circle cx="49.259" cy="86.4347" fill="blue" r="2" /><circle cx="196.7571" cy="61.5337" fill="blue" r="2" /><circle cx="11.2064" cy="13.5967" fill="blue" r="2" /><circle cx="60.1059" cy="16.4505" fill="blue" r="2" /><circle cx="31.2838" cy="55.055" fill="blue" r="2" /><circle cx="37.0348" cy="81.8415" fill="blue" r="2" /><circle cx="190.6979" cy="46.1268" fill="blue" r="2" /><circle cx="90.9696" cy="77.7418" fill="blue" r="2" /><circle cx="185.6168" cy="3.9456" fill="blue" r="2" /><circle cx="167.9091" cy="24.1859" fill="blue" r="2" /></svg>