<?xml version="1.0" encoding="utf-8" ?>
<svg baseProfile="tiny" height="200px" version="1.2" width="600px" xmlns="http://www.w3.org/2000/svg" xmlns:ev="http://www.w3.org/2001/xml-events" xmlns:xlink="http://www.w3.org/1999/xlink"><defs /><text fill="black" font-size="14px" text-anchor="start" x="20" y="50">¿Cuál es el trabajo realizado por un gas en una expansión isobárica si la presión </text><text fill="black" font-size="14px" text-anchor="start" x="20" y="68"> es de 4.23 atm y el cambio de volumen es de 11.28 litros?</text><circle cx="54.6708" cy="78.7826" fill="blue" r="2" /><circle cx="17.8503" cy="3.5679" fill="blue" r="2" /><circle cx="145.311" cy="90.1095" fill="blue" r="2" /><circle cx="34.3933" cy="26.7233" fill="blue" r="2" /><circle cx="134.094" cy="36.9428" fill="blue" r="2" /><circle cx="156.1511" cy="91.6006" fill="blue" r="2" /><circle cx="22.1402" cy="43.8736" fill="blue" r="2" /><circle cx="108.9193" cy="79.0887" fill="blue" r="2" /><circle cx="13.9949" cy="41.2005" fill="blue" r="2" /><circle cx="159.207" cy="19.0459" fill="blue" r="2" /><circle cx="129.9328" cy="53.6318" fill="blue" r="2" /><circle cx="199.4756" cy="75.1751" fill="blue" r="2" /><circle cx="180.7933" cy="65.4972" fill="blue" r="2" /><circle cx="128.2055" cy="82.6669" fill="blue" r="2" /><circle cx="66.7758" cy="6.8067" fill="blue" r="2" /><circle cx="161.5669" cy="86.4372" fill="blue" r="2" /><circle cx="130.7666" cy="2.3231" fill="blue" r="2" /><circle cx="135.5278" cy="82.4121" fill="blue" r="2" /><circle cx="111.1498" cy="75.9863" fill="blue" r="2" /><circle cx="37.5601" cy="38.2187" fill="blue" r="2" /><circle cx="194.7826" cy="85.1016" fill="blue" r="2" /><circle cx="174.1981" cy="90.0838" fill="blue" r="2" /><circle cx="116.3512" cy="4.674" fill="blue" r="2" /><circle cx="30.4122" cy="76.155" fill="blue" r="2" /><circle cx="87.5064" cy="67.8476" fill="blue" r="2" /><circle cx="82.5133" cy="97.8455" fill="blue" r="2" /><circle cx="189.5443" cy="22.2021" fill="blue" r="2" /><circle cx="85.6445" cy="82.1505" fill="blue" r="2" /><circle cx="87.794" cy="72.6882" fill="blue" r="2" /><circle cx="53.3819" cy="75.3048" fill="blue" r="2" /><circle cx="95.8681" cy="46.4223" fill="blue" r="2" /><circle cx="71.7743" cy="46.9734" fill="blue" r="2" /><circle cx="174.1886" cy="40.5143" fill="blue" r="2" /><circle cx="78.6765" cy="18.5975" fill="blue" r="2" /><circle cx="109.8906" cy="77.7247" fill="blue" r="2" /><circle cx="107.5387" cy="78.9907" fill="blue" r="2" /><circle cx="32.6988" cy="90.7954" fill="blue" r="2" /><circle cx="148.9099" cy="31.6987" fill="blue" r="2" /><circle cx="177.3078" cy="64.9788" fill="blue" r="2" /><circle cx="145.709" cy="49.4548" fill="blue" r="2" /><circle cx="179.1353" cy="51.9423" fill="blue" r="2" /><circle cx="123.1428" cy="66.9808" fill="blue" r="2" /><circle cx="11.333" cy="47.1104" fill="blue" r="2" /><circle cx="48.3412" cy="99.3613" fill="blue" r="2" /><circle cx="51.894" cy="76.667" fill="blue" r="2" /><circle cx="85.276" cy="75.9796" fill="blue" r="2" /><circle cx="153.8604" cy="1.3793" fill="blue" r="2" /><circle cx="0.1222" cy="28.8265" fill="blue" r="2" /><circle cx="91.1344" cy="39.9162" fill="blue" r="2" /><circle cx="51.8728" cy="90.4251" fill="blue" r="2" /><circle cx="189.6818" cy="84.1664" fill="blue" r="2" /><circle cx="98.2931" cy="19.2227" fill="blue" r="2" /><circle cx="0.6161" cy="39.942" fill="blue" r="2" /><circle cx="108.2461" cy="4.7009" fill="blue" r="2" /><circle cx="92.1417" cy="75.291" fill="blue" r="2" /><circle cx="189.4486" cy="7.4701" fill="blue" r="2" /><circle cx="120.3585" cy="87.0854" fill="blue" r="2" /><circle cx="12.0458" cy="35.1502" fill="blue" r="2" /><circle cx="154.5603" cy="33.0042" fill="blue" r="2" /><circle cx="177.9331" cy="71.5738" fill="blue" r="2" /><circle cx="154.0886" cy="19.4903" fill="blue" r="2" /><circle cx="136.1306" cy="58.9512" fill="blue" r="2" /><circle cx="194.9953" cy="73.074" fill="blue" r="2" /><circle cx="184.2246" cy="21.3034" fill="blue" r="2" /><circle cx="24.246" cy="3.9554" fill="blue" r="2" /><circle cx="129.343" cy="26.3429" fill="blue" r="2" /><circle cx="13.8511" cy="73.5138" fill="blue" r="2" /><circle cx="46.1902" cy="67.2931" fill="blue" r="2" /><circle cx="17.8173" cy="98.1354" fill="blue" r="2" /><circle cx="8.3268" cy="97.2581" fill="blue" r="2" /><circle cx="199.2366" cy="63.8945" fill="blue" r="2" /><circle cx="95.6232" cy="17.2612" fill="blue" r="2" /><circle cx="18.3392" cy="26.5717" fill="blue" r="2" /><circle cx="17.6436" cy="80.9147" fill="blue" r="2" /><circle cx="164.8982" cy="57.0678" fill="blue" r="2" /><circle cx="23.3629" cy="44.3369" fill="blue" r="2" /><circle cx="168.1739" cy="31.6183" fill="blue" r="2" /><circle cx="153.516" cy="73.9957" fill="blue" r="2" /><circle cx="4.1971" cy="34.2402" fill="blue" r="2" /><circle cx="110.2295" cy="10.897" fill="blue" r="2" /><circle cx="58.2711" cy="47.5927" fill="blue" r="2" /><circle cx="25.7095" cy="43.959" fill="blue" r="2" /><circle cx="78.3102" cy="5.9154" fill="blue" r="2" /><circle cx="107.66" cy="22.3658" fill="blue" r="2" /><circle cx="145.5687" cy="23.823" fill="blue" r="2" /><circle cx="168.2984" cy="15.5689" fill="blue" r="2" /><circle cx="190.001" cy="75.6289" fill="blue" r="2" /><circle cx="22.5333" cy="73.5511" fill="blue" r="2" /><circle cx="56.5586" cy="15.4082" fill="blue" r="2" /><circle cx="113.5767" cy="95.5821" fill="blue" r="2" /><circle cx="170.3042" cy="99.4568" fill="blue" r="2" /><circle cx="63.7782" cy="49.5701" fill="blue" r="2" /><circle cx="176.9727" cy="36.2509" fill="blue" r="2" /><circle cx="76.6024" cy="23.2366" fill="blue" r="2" /><circle cx="150.408" cy="76.4297" fill="blue" r="2" /><circle cx="44.4092" cy="28.2412" fill="blue" r="2" /><circle cx="102.6907" cy="43.737" fill="blue" r="2" /><circle cx="6.9088" cy="88.1428" fill="blue" r="2" /><circle cx="73.8668" cy="67.8088" fill="blue" r="2" /><circle cx="154.4902" cy="26.9911" fill="blue" r="2" /><circle cx="168.2423" cy="52.0129" fill="blue" r="2" /><circle cx="46.3465" cy="48.3645" fill="blue" r="2" /><circle cx="19.6425" cy="11.0112" fill="blue" r="2" /><circle cx="180.9301" cy="37.0579" fill="blue" r="2" /><circle cx="176.5365" cy="42.022" fill="blue" r="2" /><circle cx="33.5603" cy="16.6316" fill="blue" r="2" /><circle cx="52.7444" cy="56.0885" fill="blue" r="2" /><circle cx="156.9656" cy="9.9498" fill="blue" r="2" /><circle cx="42.8475" cy="61.4079" fill="blue" r="2" /><circle cx="184.8232" cy="79.8997" fill="blue" r="2" /><circle cx="23.3955" cy="35.9725" fill="blue" r="2" /><circle cx="129.7918" cy="44.5924" fill="blue" r="2" /><circle cx="139.7539" cy="17.2058" fill="blue" r="2" /><circle cx="185.0199" cy="26.1263" fill="blue" r="2" /><circle cx="57.1927" cy="74.7565" fill="blue" r="2" /><circle cx="198.9252" cy="67.1259" fill="blue" r="2" /><circle cx="36.8612" cy="61.6556" fill="blue" r="2" /><circle cx="10.6618" cy="20.6456" fill="blue" r="2" /><circle cx="77.9795" cy="9.6842" fill="blue" r="2" /><circle cx="3.9621" cy="66.8766" fill="blue" r="2" /><circle cx="54.382" cy="54.537" fill="blue" r="2" /><circle cx="129.5084" cy="37.8388" fill="blue" r="2" /><circle cx="93.0559" cy="23.3979" fill="blue" r="2" /><circle cx="40.3498" cy="96.7042" fill="blue" r="2" /><circle cx="108.3734" cy="89.3823" fill="blue" r="2" /><circle cx="30.7013" cy="96.1326" fill="blue" r="2" /><circle cx="150.4128" cy="10.2509" fill="blue" r="2" /><circle cx="189.3723" cy="29.6359" fill="blue" r="2" /><circle cx="24.6778" cy="9.02" fill="blue" r="2" /><circle cx="20.9472" cy="37.0971" fill="blue" r="2" /><circle cx="191.7949" cy="4.1949" fill="blue" r="2" /><circle cx="172.9737" cy="42.421" fill="blue" r="2" /><circle cx="89.6274" cy="78.0088" fill="blue" r="2" /><circle cx="88.0666" cy="73.8321" fill="blue" r="2" /><circle cx="198.014" cy="91.5611" fill="blue" r="2" /><circle cx="16.2012" cy="95.6045" fill="blue" r="2" /><circle cx="95.2459" cy="71.9578" fill="blue" r="2" /><circle cx="196.0838" cy="92.1983" fill="blue" r="2" /><circle cx="68.9767" cy="6.0357" fill="blue" r="2" /><circle cx="0.1575" cy="12.7459" fill="blue" r="2" /><circle cx="96.3189" cy="2.4076" fill="blue" r="2" /><circle cx="18.4508" cy="89.7325" fill="blue" r="2" /><circle cx="3.2983" cy="92.1089" fill="blue" r="2" /><circle cx="54.4542" cy="52.2071" fill="blue" r="2" /><circle cx="183.3832" cy="84.3774" fill="blue" r="2" /><circle cx="86.9737" cy="57.1229" fill="blue" r="2" /><circle cx="101.7777" cy="96.2192" fill="blue" r="2" /><circle cx="29.8495" cy="33.4068" fill="blue" r="2" /><circle cx="60.3532" cy="87.096" fill="blue" r="2" /><circle cx="65.6833" cy="27.4944" fill="blue" r="2" /><circle cx="149.5405" cy="69.067" fill="blue" r="2" /><circle cx="107.3044" cy="59.513" fill="blue" r="2" /><circle cx="25.3982" cy="22.28" fill="blue" r="2" /><circle cx="189.3851" cy="86.5352" fill="blue" r="2" /><circle cx="11.1041" cy="60.5099" fill="blue" r="2" /><circle cx="64.1386" cy="69.543" fill="blue" r="2" /><circle cx="37.1249" cy="61.3937" fill="blue" r="2" /><circle cx="174.0016" cy="73.0029" fill="blue" r="2" /><circle cx="19.7562" cy="69.0715" fill="blue" r="2" /><circle cx="25.7259" cy="62.5133" fill="blue" r="2" /><circle cx="148.648" cy="91.8799" fill="blue" r="2" /><circle cx="118.5433" cy="8.5666" fill="blue" r="2" /><circle cx="11.7822" cy="14.9151" fill="blue" r="2" /><circle cx="154.6136" cy="14.8582" fill="blue" r="2" /><circle cx="12.5105" cy="68.1337" fill="blue" r="2" /><circle cx="145.0804" cy="81.0147" fill="blue" r="2" /><circle cx="12.5341" cy="28.2589" fill="blue" r="2" /><circle cx="170.0274" cy="43.0662" fill="blue" r="2" /><circle cx="7.9395" cy="22.3229" fill="blue" r="2" /><circle cx="113.2211" cy="88.971" fill="blue" r="2" /><circle cx="118.7376" cy="50.5173" fill="blue" r="2" /><circle cx="136.4796" cy="0.3544" fill="blue" r="2" /><circle cx="105.2776" cy="58.247" fill="blue" r="2" /><circle cx="133.8208" cy="58.8184" fill="blue" r="2" /><circle cx="51.1622" cy="14.2639" fill="blue" r="2" /><circle cx="32.7146" cy="53.7561" fill="blue" r="2" /><circle cx="78.1857" cy="8.8133" fill="blue" r="2" /><circle cx="77.6082" cy="16.7018" fill="blue" r="2" /><circle cx="63.8002" cy="3.5855" fill="blue" r="2" /><circle cx="33.5636" cy="63.1095" fill="blue" r="2" /><circle cx="82.9104" cy="26.0404" fill="blue" r="2" /><circle cx="160.6319" cy="64.2778" fill="blue" r="2" /><circle cx="83.7237" cy="57.7199" fill="blue" r="2" /><circle cx="151.0098" cy="1.9948" fill="blue" r="2" /><circle cx="8.2538" cy="46.5241" fill="blue" r="2" /><circle cx="101.8133" cy="10.6873" fill="blue" r="2" /><circle cx="155.8687" cy="20.3057" fill="blue" r="2" /><circle cx="33.3704" cy="10.6824" fill="blue" r="2" /><circle cx="140.0173" cy="82.1115" fill="blue" r="2" /><circle cx="56.0807" cy="13.9022" fill="blue" r="2" /><circle cx="124.5755" cy="43.0625" fill="blue" r="2" /><circle cx="57.105" cy="82.8981" fill="blue" r="2" /><circle cx="171.0815" cy="5.5748" fill="blue" r="2" /><circle cx="46.4409" cy="73.9837" fill="blue" r="2" /><circle cx="99.1106" cy="93.9301" fill="blue" r="2" /><circle cx="73.0992" cy="95.9434" fill="blue" r="2" /><circle cx="0.7055" cy="11.073" fill="blue" r="2" /><circle cx="74.149" cy="60.8764" fill="blue" r="2" /><circle cx="63.5057" cy="83.7634" fill="blue" r="2" /><circle cx="70.6446" cy="5.9282" fill="blue" r="2" /><circle cx="68.0875" cy="74.4437" fill="blue" r="2" /><circle cx="68.5108" cy="44.3001" fill="blue" r="2" /><circle cx="193.2107" cy="66.0022" fill="blue" r="2" /><circle cx="8.604" cy="3.133" fill="blue" r="2" /><circle cx="61.0081" cy="90.7298" fill="blue" r="2" /><circle cx="73.5625" cy="38.3592" fill="blue" r="2" /><circle cx="178.6029" cy="8.9257" fill="blue" r="2" /><circle cx="173.415" cy="58.4274" fill="blue" r="2" /><circle cx="178.6123" cy="84.6015" fill="blue" r="2" /><circle cx="77.3622" cy="38.7495" fill="blue" r="2" /><circle cx="68.3786" cy="97.656" fill="blue" r="2" /><circle cx="72.4169" cy="65.87" fill="blue" r="2" /><circle cx="18.4768" cy="69.1623" fill="blue" r="2" /><circle cx="0.9485" cy="63.1686" fill="blue" r="2" /><circle cx="177.8121" cy="42.6238" fill="blue" r="2" /><circle cx="63.8167" cy="64.4218" fill="blue" r="2" /><circle cx="100.6969" cy="64.5165" fill="blue" r="2" /><circle cx="6.4308" cy="52.3655" fill="blue" r="2" /><circle cx="147.4316" cy="12.6871" fill="blue" r="2" /><circle cx="104.2688" cy="52.7965" fill="blue" r="2" /><circle cx="148.9518" cy="72.7174" fill="blue" r="2" /><circle cx="10.0407" cy="8.7042" fill="blue" r="2" /><circle cx="16.4521" cy="88.5682" fill="blue" r="2" /><circle cx="136.9903" cy="86.5824" fill="blue" r="2" /><circle cx="163.7493" cy="25.6734" fill="blue" r="2" /><circle cx="11.927" cy="53.9465" fill="blue" r="2" /><circle cx="194.3071" cy="3.3706" fill="blue" r="2" /><circle cx="41.639" cy="45.7836" fill="blue" r="2" /><circle cx="126.8979" cy="62.4757" fill="blue" r="2" /><circle cx="177.7907" cy="44.5519" fill="blue" r="2" /><circle cx="80.4357" cy="8.1681" fill="blue" r="2" /><circle cx="18.5875" cy="94.7982" fill="blue" r="2" /><circle cx="168.9894" cy="63.7898" fill="blue" r="2" /><circle cx="35.398" cy="46.4394" fill="blue" r="2" /><circle cx="135.5097" cy="54.2659" fill="blue" r="2" /><circle cx="184.5236" cy="92.7034" fill="blue" r="2" /><circle cx="0.7647" cy="66.3685" fill="blue" r="2" /><circle cx="182.6037" cy="0.5987" fill="blue" r="2" /><circle cx="75.7315" cy="25.9711" fill="blue" r="2" /><circle cx="190.5385" cy="91.1435" fill="blue" r="2" /><circle cx="21.7652" cy="56.5516" fill="blue" r="2" /><circle cx="61.6992" cy="82.2135" fill="blue" r="2" /><circle cx="76.4059" cy="38.7094" fill="blue" r="2" /><circle cx="41.5593" cy="12.0406" fill="blue" r="2" /><circle cx="156.7207" cy="7.5974" fill="blue" r="2" /><circle cx="86.6091" cy="82.9714" fill="blue" r="2" /><circle cx="31.8408" cy="21.0555" fill="blue" r="2" /><circle cx="183.3964" cy="52.9864" fill="blue" r="2" /><circle cx="114.183" cy="80.2544" fill="blue" r="2" /><circle cx="26.6382" cy="70.9583" fill="blue" r="2" /><circle cx="80.3631" cy="75.8193" fill="blue" r="2" /><circle cx="7.5728" cy="15.3848" fill="blue" r="2" /><circle cx="81.5626" cy="13.5741" fill="blue" r="2" /><circle cx="24.48" cy="64.0548" fill="blue" r="2" /><circle cx="51.2458" cy="75.6264" fill="blue" r="2" /><circle cx="44.75" cy="91.0046" fill="blue" r="2" /><circle cx="66.0721" cy="63.2501" fill="blue" r="2" /><circle cx="70.626" cy="94.6997" fill="blue" r="2" /><circle cx="165.1947" cy="86.1843" fill="blue" r="2" /><circle cx="193.1469" cy="0.8869" fill="blue" r="2" /><circle cx="190.7441" cy="20.8656" fill="blue" r="2" /><circle cx="126.4507" cy="30.8286" fill="blue" r="2" /><circle cx="99.2492" cy="10.1327" fill="blue" r="2" /><circle cx="121.129" cy="45.7954" fill="blue" r="2" /><circle cx="198.2394" cy="17.748" fill="blue" r="2" /><circle cx="143.5524" cy="60.4525" fill="blue" r="2" /><circle cx="48.7054" cy="6.79" fill="blue" r="2" /><circle cx="70.4349" cy="25.1601" fill="blue" r="2" /><circle cx="23.0721" cy="77.035" fill="blue" r="2" /><circle cx="108.9244" cy="65.1108" fill="blue" r="2" /><circle cx="47.2942" cy="36.1849" fill="blue" r="2" /><circle cx="10.1004" cy="37.9418" fill="blue" r="2" /><circle cx="27.5352" cy="20.4391" fill="blue" r="2" /><circle cx="169.035" cy="41.3594" fill="blue" r="2" /><circle cx="48.1834" cy="79.0634" fill="blue" r="2" /><circle cx="61.4354" cy="55.3739" fill="blue" r="2" /><circle cx="159.0493" cy="75.0657" fill="blue" r="2" /><circle cx="88.9886" cy="64.7397" fill="blue" r="2" /><circle cx="59.5289" cy="58.6839" fill="blue" r="2" /><circle cx="115.1184" cy="60.5778" fill="blue" r="2" /><circle cx="32.4259" cy="53.6433" fill="blue" r="2" /><circle cx="138.4808" cy="36.4574" fill="blue" r="2" /><circle cx="112.8323" cy="87.9887" fill="blue" r="2" /><circle cx="181.6694" cy="51.3129" fill="blue" r="2" /><circle cx="50.2308" cy="94.3766" fill="blue" r="2" /><circle cx="122.5776" cy="46.0719" fill="blue" r="2" /><circle cx="147.6689" cy="88.0522" fill="blue" r="2" /><circle cx="113.2488" cy="94.0428" fill="blue" r="2" /><circle cx="0.6318" cy="60.4986" fill="blue" r="2" /><circle cx="17.6431" cy="35.6458" fill="blue" r="2" /><circle cx="5.1599" cy="99.514" fill="blue" r="2" /><circle cx="12.0707" cy="31.2084" fill="blue" r="2" /><circle cx="186.4616" cy="83.395" fill="blue" r="2" /><circle cx="191.3882" cy="72.9225" fill="blue" r="2" /><circle cx="127.4256" cy="76.3204" fill="blue" r="2" /><circle cx="60.2435" cy="5.8761" fill="blue" r="2" /><circle cx="173.8328" cy="0.7219" fill="blue" r="2" /><circle cx="156.8008" cy="90.0042" fill="blue" r="2" /><circle cx="184.3565" cy="99.8529" fill="blue" r="2" /><circle cx="0.1041" cy="99.6421" fill="blue" r="2" /></svg>